<?xml version="1.0" encoding="UTF-8" standalone="no"?>
<!-- Created with Inkscape (http://www.inkscape.org/) -->

<svg
   width="1280"
   height="640"
   viewBox="0 0 338.66666 169.33333"
   version="1.1"
   id="svg5"
   sodipodi:docname="logo-social.svg"
   inkscape:export-filename="logo-social.png"
   inkscape:export-xdpi="96"
   inkscape:export-ydpi="96"
   inkscape:version="1.2.2 (b0a8486541, 2022-12-01)"
   xmlns:inkscape="http://www.inkscape.org/namespaces/inkscape"
   xmlns:sodipodi="http://sodipodi.sourceforge.net/DTD/sodipodi-0.dtd"
   xmlns="http://www.w3.org/2000/svg"
   xmlns:svg="http://www.w3.org/2000/svg">
  <sodipodi:namedview
     id="namedview7"
     pagecolor="#ffffff"
     bordercolor="#666666"
     borderopacity="1.0"
     inkscape:pageshadow="2"
     inkscape:pageopacity="0.0"
     inkscape:pagecheckerboard="0"
     inkscape:document-units="px"
     showgrid="false"
     units="px"
     width="128px"
     inkscape:zoom="0.51451751"
     inkscape:cx="223.51037"
     inkscape:cy="893.0697"
     inkscape:window-width="2558"
     inkscape:window-height="1390"
     inkscape:window-x="4480"
     inkscape:window-y="24"
     inkscape:window-maximized="1"
     inkscape:current-layer="layer1"
     inkscape:snap-global="true"
     inkscape:snap-grids="true"
     showguides="true"
     inkscape:guide-bbox="true"
     inkscape:showpageshadow="2"
     inkscape:deskcolor="#d1d1d1">
    <sodipodi:guide
       position="32.996874,72.354712"
       orientation="0,-1"
       id="guide3950"
       inkscape:locked="false" />
    <sodipodi:guide
       position="32.996874,150.01809"
       orientation="1,0"
       id="guide3952"
       inkscape:locked="false" />
    <sodipodi:guide
       position="297.77667,138.75086"
       orientation="1,0"
       id="guide3954"
       inkscape:locked="false" />
    <sodipodi:guide
       position="195.40747,143.46382"
       orientation="0,-1"
       id="guide4047"
       inkscape:locked="false" />
    <sodipodi:guide
       position="89.608226,26.854733"
       orientation="0,-1"
       id="guide4049"
       inkscape:locked="false" />
  </sodipodi:namedview>
  <defs
     id="defs2">
    <rect
       x="122.47233"
       y="102.14322"
       width="1007.111"
       height="301.98515"
       id="rect180" />
    <rect
       x="218.8225"
       y="425.24464"
       width="967.78873"
       height="145.11023"
       id="rect1443" />
  </defs>
  <g
     inkscape:groupmode="layer"
     id="layer2"
     inkscape:label="Layer 2"
     style="display:inline" />
  <g
     inkscape:groupmode="layer"
     id="layer1"
     inkscape:label="Layer 3">
    <g
       aria-label="because one sample is not enough"
       transform="matrix(0.26458333,0,0,0.26458333,8.5102393,18.517944)"
       id="text1441"
       style="font-size:53.3333px;line-height:1.25;font-family:'Cotham Sans';-inkscape-font-specification:'Cotham Sans';letter-spacing:0px;word-spacing:0px;white-space:pre;shape-inside:url(#rect1443);display:inline;fill:#80c080">
      <path
         d="m 221.86226,471.91078 h 3.84 l -0.21333,-3.36 0.58666,-0.26667 c 1.6,2.29334 4.16,4.05334 7.84,4.05334 6.77333,0 12.37333,-4.37333 12.37333,-13.22666 0,-7.57333 -4.96,-12.64 -11.52,-12.64 -3.94666,0 -6.82666,1.97334 -8.53333,4.64 V 431.9108 h -4.37333 z m 11.89333,-21.59999 c 3.68,0 7.62666,2.29333 7.62666,9.22666 0,7.09333 -4.05333,9.17333 -7.51999,9.17333 -5.01333,0 -7.62667,-4.21333 -7.62667,-9.22666 v -0.74667 c 0.16,-5.17333 3.2,-8.42666 7.52,-8.42666 z"
         id="path445" />
      <path
         d="m 268.20891,463.43078 c 0.0533,1.49334 -0.53334,2.66667 -1.33334,3.52 -1.22666,1.22667 -2.72,1.92 -4.63999,1.92 -5.28,0 -7.25333,-3.84 -7.46667,-8.58666 h 18.23999 v -2.98667 h -0.0533 c -0.10667,-6.61332 -4.74666,-10.71999 -10.98666,-10.71999 -6.82666,0 -11.57333,5.44 -11.57333,13.22666 0,7.52 3.68,12.58666 11.09333,12.58666 3.57333,0 6.4,-0.8 8.53333,-2.93333 1.38666,-1.33333 2.66666,-3.30667 2.50666,-5.44 z m -6.18667,-13.33332 c 3.78667,0 6.50667,2.82666 6.4,7.19999 h -13.54666 c 0.53333,-4.05333 2.72,-7.19999 7.14666,-7.19999 z"
         id="path447" />
      <path
         d="m 295.56887,462.36412 c 0,1.81333 -0.48,3.46666 -1.44,4.48 -1.27999,1.28 -2.87999,1.97333 -4.74666,1.97333 -5.22666,0 -7.41333,-4.42667 -7.41333,-9.38666 0,-4.85333 2.82667,-9.54666 7.46666,-9.54666 1.86667,0 3.62667,0.58666 4.90667,2.07999 0.8,0.85334 1.38666,2.24 1.28,3.84 l 4.26666,-0.58666 c 0.32,-2.61334 -1.17333,-4.96 -2.93333,-6.45333 -2.02667,-1.70667 -4.58666,-2.4 -7.62666,-2.4 -6.98666,0 -12,5.65333 -12,13.43999 0,7.52 3.94667,12.58666 11.30666,12.58666 3.04,0 5.76,-0.69333 7.89333,-2.34667 1.97334,-1.6 3.73333,-4.21333 3.46667,-7.09333 z"
         id="path449" />
      <path
         d="m 319.6222,457.77745 -5.17334,0.10667 c -1.75999,0.0533 -3.62666,0.16 -5.06666,0.58667 -3.73333,1.06666 -5.92,3.46666 -5.92,7.25333 0,4.10666 3.2,6.71999 7.78667,6.71999 3.41333,0 6.29333,-1.76 8.42666,-4.21333 l 0.48,0.16 c 0.16,1.81333 1.65333,4.05333 4.48,4.05333 0.74666,0 1.91999,-0.26666 2.23999,-0.37333 v -3.14667 c -2.34666,0.26667 -2.77333,-0.95999 -2.77333,-3.03999 v -9.92 c 0,-7.78666 -5.06666,-9.38666 -9.91999,-9.38666 -5.01333,0 -10.02666,2.56 -10.02666,6.88 0,0.42666 0,0.69333 0.10666,1.17333 l 4.53333,0.32 c -0.53333,-1.49333 -0.53333,-4.90666 5.44,-4.90666 4.53333,0 5.38667,3.25333 5.38667,6.02666 z m -11.36,7.62667 c 0,-3.30667 3.25333,-4.26667 6.45333,-4.42667 l 4.90667,-0.16 v 3.2 c -1.81334,3.14667 -5.01334,4.85333 -7.46667,4.85333 -2.29333,0 -3.89333,-1.12 -3.89333,-3.46666 z"
         id="path451" />
      <path
         d="m 335.67553,446.84413 h -4.37333 v 15.83999 c 0,5.81333 2.77333,9.75999 8.96,9.75999 3.51999,0 6.50666,-2.08 7.94666,-5.01333 v 4.48 h 3.94666 v -25.06665 h -4.37333 v 13.86666 c 0,6.07999 -4.10666,7.62666 -6.55999,7.62666 -3.52,0 -5.54667,-1.76 -5.54667,-6.61333 z"
         id="path453" />
      <path
         d="m 376.31548,453.03079 c 0.21333,-4.53333 -5.06667,-6.45333 -9.01333,-6.45333 -6.66667,0 -9.28,4.05333 -9.28,7.36 0,1.49333 0.42667,3.14666 1.76,4.42666 1.33333,1.22667 3.52,2.13333 6.50666,2.82667 3.78667,0.90666 6.29333,1.70666 6.29333,4.21333 0,2.08 -1.86666,3.51999 -5.27999,3.51999 -3.52,0 -5.54667,-1.54666 -6.08,-4.90666 l -3.84,0.96 c -0.21333,5.01333 4.69333,7.41333 9.28,7.41333 7.14666,0 10.29332,-3.68 10.29332,-7.78666 0,-4.32 -3.03999,-6.24 -8.53332,-7.41333 -5.06667,-1.12 -6.18667,-2.02667 -6.18667,-3.94667 0,-1.81333 1.81334,-3.19999 4.58667,-3.19999 2.45333,0 5.38666,0.90666 5.54666,3.83999 z"
         id="path455" />
      <path
         d="m 399.19546,463.43078 c 0.0533,1.49334 -0.53333,2.66667 -1.33333,3.52 -1.22666,1.22667 -2.72,1.92 -4.64,1.92 -5.27999,0 -7.25332,-3.84 -7.46666,-8.58666 h 18.23999 v -2.98667 h -0.0533 c -0.10667,-6.61332 -4.74667,-10.71999 -10.98666,-10.71999 -6.82666,0 -11.57333,5.44 -11.57333,13.22666 0,7.52 3.68,12.58666 11.09333,12.58666 3.57333,0 6.39999,-0.8 8.53333,-2.93333 1.38666,-1.33333 2.66666,-3.30667 2.50666,-5.44 z m -6.18666,-13.33332 c 3.78667,0 6.50666,2.82666 6.4,7.19999 h -13.54666 c 0.53333,-4.05333 2.72,-7.19999 7.14666,-7.19999 z"
         id="path457" />
      <path
         d="m 421.59543,460.01745 c 0,6.18667 4.05333,12.42666 12.42666,12.42666 8.26666,0 12.37332,-6.23999 12.37332,-12.95999 0,-6.77333 -4.10666,-13.01333 -12.37332,-13.01333 -8.37333,0 -12.42666,6.77333 -12.42666,13.54666 z m 4.85333,-0.53333 c 0,-4.53333 2.02667,-9.49333 7.57333,-9.49333 5.54666,0 7.46666,4.96 7.46666,9.49333 0,4.48 -1.92,9.43999 -7.46666,9.43999 -5.54666,0 -7.57333,-4.95999 -7.57333,-9.43999 z"
         id="path459" />
      <path
         d="m 469.38207,471.91078 h 4.37333 v -15.57332 c 0,-5.81333 -2.77333,-9.76 -8.96,-9.76 -3.57333,0 -6.55999,2.08 -7.94666,5.01333 v -4.74666 h -3.94666 v 25.06665 h 4.37333 v -14.02666 c 0.16,-5.70666 4.16,-7.19999 6.56,-7.19999 3.19999,0 5.54666,1.75999 5.54666,6.61332 z"
         id="path461" />
      <path
         d="m 497.00873,463.43078 c 0.0533,1.49334 -0.53334,2.66667 -1.33334,3.52 -1.22666,1.22667 -2.71999,1.92 -4.63999,1.92 -5.28,0 -7.25333,-3.84 -7.46666,-8.58666 h 18.23998 v -2.98667 h -0.0533 c -0.10667,-6.61332 -4.74666,-10.71999 -10.98666,-10.71999 -6.82666,0 -11.57333,5.44 -11.57333,13.22666 0,7.52 3.68,12.58666 11.09333,12.58666 3.57333,0 6.4,-0.8 8.53333,-2.93333 1.38667,-1.33333 2.66666,-3.30667 2.50666,-5.44 z m -6.18667,-13.33332 c 3.78667,0 6.50667,2.82666 6.4,7.19999 H 483.6754 c 0.53334,-4.05333 2.72,-7.19999 7.14666,-7.19999 z"
         id="path463" />
      <path
         d="m 537.86201,453.03079 c 0.21334,-4.53333 -5.06666,-6.45333 -9.01332,-6.45333 -6.66667,0 -9.28,4.05333 -9.28,7.36 0,1.49333 0.42667,3.14666 1.76,4.42666 1.33333,1.22667 3.52,2.13333 6.50666,2.82667 3.78667,0.90666 6.29333,1.70666 6.29333,4.21333 0,2.08 -1.86666,3.51999 -5.27999,3.51999 -3.52,0 -5.54667,-1.54666 -6.08,-4.90666 l -3.84,0.96 c -0.21333,5.01333 4.69333,7.41333 9.28,7.41333 7.14666,0 10.29332,-3.68 10.29332,-7.78666 0,-4.32 -3.03999,-6.24 -8.53332,-7.41333 -5.06667,-1.12 -6.18667,-2.02667 -6.18667,-3.94667 0,-1.81333 1.81334,-3.19999 4.58667,-3.19999 2.45333,0 5.38666,0.90666 5.54666,3.83999 z"
         id="path465" />
      <path
         d="m 558.982,457.77745 -5.17333,0.10667 c -1.75999,0.0533 -3.62666,0.16 -5.06666,0.58667 -3.73333,1.06666 -5.92,3.46666 -5.92,7.25333 0,4.10666 3.2,6.71999 7.78667,6.71999 3.41333,0 6.29333,-1.76 8.42666,-4.21333 l 0.48,0.16 c 0.16,1.81333 1.65333,4.05333 4.48,4.05333 0.74666,0 1.91999,-0.26666 2.23999,-0.37333 v -3.14667 c -2.34666,0.26667 -2.77333,-0.95999 -2.77333,-3.03999 v -9.92 c 0,-7.78666 -5.06666,-9.38666 -9.91999,-9.38666 -5.01333,0 -10.02666,2.56 -10.02666,6.88 0,0.42666 0,0.69333 0.10666,1.17333 l 4.53333,0.32 c -0.53333,-1.49333 -0.53333,-4.90666 5.44,-4.90666 4.53333,0 5.38666,3.25333 5.38666,6.02666 z m -11.35999,7.62667 c 0,-3.30667 3.25333,-4.26667 6.45333,-4.42667 l 4.90666,-0.16 v 3.2 c -1.81333,3.14667 -5.01333,4.85333 -7.46666,4.85333 -2.29333,0 -3.89333,-1.12 -3.89333,-3.46666 z"
         id="path467" />
      <path
         d="m 587.46199,471.91078 h 4.37333 v -13.59999 c 0,-6.08 4.10666,-7.62666 6.55999,-7.62666 2.88,0 5.49333,1.75999 5.49333,6.61332 v 14.61333 h 4.37333 v -15.57332 c 0,-5.81333 -3.09333,-9.76 -8.90666,-9.76 -3.84,0 -7.03999,2.13333 -8.26666,5.33333 -1.22667,-3.25333 -4,-5.33333 -8.15999,-5.33333 -3.57334,0 -6.56,2.08 -7.94667,5.01333 v -4.74666 h -3.94666 v 25.06665 h 4.37333 v -14.02666 c 0.16,-5.70666 4.16,-7.19999 6.56,-7.19999 2.87999,0 5.49333,1.75999 5.49333,6.61332 z"
         id="path469" />
      <path
         d="m 618.66197,446.84413 h -3.73333 v 38.39997 h 4.37333 v -16.53332 c 1.54667,2.13333 4.10666,3.62667 7.68,3.62667 6.77332,0 12.37332,-4.37333 12.37332,-13.22666 0,-7.57333 -4.96,-12.64 -11.51999,-12.64 -4,0 -6.88,1.65334 -8.64,4.32 l -0.74666,-0.21333 z m 8.16,3.46666 c 3.67999,0 7.62666,2.29333 7.62666,9.22666 0,7.09333 -4.05333,9.17333 -7.52,9.17333 -4.90666,0 -7.51999,-4 -7.62666,-8.85333 v -0.74666 c 0,-5.38667 3.09333,-8.8 7.52,-8.8 z"
         id="path471" />
      <path
         d="m 645.22194,471.91078 h 4.37334 V 431.9108 h -4.37334 z"
         id="path473" />
      <path
         d="m 672.95526,463.43078 c 0.0533,1.49334 -0.53333,2.66667 -1.33333,3.52 -1.22667,1.22667 -2.72,1.92 -4.64,1.92 -5.28,0 -7.25333,-3.84 -7.46666,-8.58666 h 18.23999 v -2.98667 h -0.0533 c -0.10666,-6.61332 -4.74666,-10.71999 -10.98666,-10.71999 -6.82666,0 -11.57332,5.44 -11.57332,13.22666 0,7.52 3.68,12.58666 11.09332,12.58666 3.57334,0 6.4,-0.8 8.53333,-2.93333 1.38667,-1.33333 2.66667,-3.30667 2.50667,-5.44 z m -6.18666,-13.33332 c 3.78666,0 6.50666,2.82666 6.39999,7.19999 h -13.54665 c 0.53333,-4.05333 2.71999,-7.19999 7.14666,-7.19999 z"
         id="path475" />
      <path
         d="m 697.22189,471.91078 h 4.37333 v -25.06665 h -4.37333 z m -0.74667,-34.93331 c 0,1.76 1.12,2.82666 2.98667,2.82666 1.86667,0 2.93333,-1.06666 2.93333,-2.82666 0,-1.76 -1.06666,-2.82667 -2.93333,-2.82667 -1.86667,0 -2.98667,1.06667 -2.98667,2.82667 z"
         id="path477" />
      <path
         d="m 726.3419,453.03079 c 0.21334,-4.53333 -5.06666,-6.45333 -9.01332,-6.45333 -6.66667,0 -9.28,4.05333 -9.28,7.36 0,1.49333 0.42667,3.14666 1.76,4.42666 1.33333,1.22667 3.52,2.13333 6.50666,2.82667 3.78667,0.90666 6.29333,1.70666 6.29333,4.21333 0,2.08 -1.86666,3.51999 -5.27999,3.51999 -3.52,0 -5.54667,-1.54666 -6.08,-4.90666 l -3.84,0.96 c -0.21333,5.01333 4.69333,7.41333 9.28,7.41333 7.14666,0 10.29332,-3.68 10.29332,-7.78666 0,-4.32 -3.04,-6.24 -8.53333,-7.41333 -5.06666,-1.12 -6.18666,-2.02667 -6.18666,-3.94667 0,-1.81333 1.81333,-3.19999 4.58667,-3.19999 2.45333,0 5.38666,0.90666 5.54666,3.83999 z"
         id="path479" />
      <path
         d="m 763.4619,471.91078 h 4.37333 v -15.57332 c 0,-5.81333 -2.77333,-9.76 -8.95999,-9.76 -3.57333,0 -6.56,2.08 -7.94666,5.01333 v -4.74666 h -3.94667 v 25.06665 h 4.37333 v -14.02666 c 0.16,-5.70666 4.16,-7.19999 6.56,-7.19999 3.2,0 5.54666,1.75999 5.54666,6.61332 z"
         id="path481" />
      <path
         d="m 773.27524,460.01745 c 0,6.18667 4.05333,12.42666 12.42666,12.42666 8.26666,0 12.37332,-6.23999 12.37332,-12.95999 0,-6.77333 -4.10666,-13.01333 -12.37332,-13.01333 -8.37333,0 -12.42666,6.77333 -12.42666,13.54666 z m 4.85333,-0.53333 c 0,-4.53333 2.02666,-9.49333 7.57333,-9.49333 5.54666,0 7.46666,4.96 7.46666,9.49333 0,4.48 -1.92,9.43999 -7.46666,9.43999 -5.54667,0 -7.57333,-4.95999 -7.57333,-9.43999 z"
         id="path483" />
      <path
         d="m 815.99521,450.36413 v -3.36 h -6.39999 v -10.56 l -4.37333,1.6 v 8.96 h -4.05333 v 3.36 h 4.05333 v 13.59999 c 0,5.06666 -0.16,8.26666 4.74666,8.26666 1.76,0 3.84,-0.32 5.33333,-0.8 l -0.0533,-3.52 c -1.17333,0.37333 -2.61333,0.53333 -3.52,0.53333 -1.44,0 -2.13333,-0.47999 -2.13333,-4.15999 v -13.91999 z"
         id="path485" />
      <path
         d="m 850.50183,463.43078 c 0.0533,1.49334 -0.53333,2.66667 -1.33333,3.52 -1.22667,1.22667 -2.72,1.92 -4.64,1.92 -5.28,0 -7.25333,-3.84 -7.46666,-8.58666 h 18.23999 v -2.98667 h -0.0533 c -0.10666,-6.61332 -4.74666,-10.71999 -10.98666,-10.71999 -6.82666,0 -11.57332,5.44 -11.57332,13.22666 0,7.52 3.68,12.58666 11.09332,12.58666 3.57334,0 6.4,-0.8 8.53333,-2.93333 1.38667,-1.33333 2.66667,-3.30667 2.50667,-5.44 z m -6.18666,-13.33332 c 3.78666,0 6.50666,2.82666 6.39999,7.19999 h -13.54665 c 0.53333,-4.05333 2.71999,-7.19999 7.14666,-7.19999 z"
         id="path487" />
      <path
         d="m 878.2885,471.91078 h 4.37333 v -15.57332 c 0,-5.81333 -2.77333,-9.76 -8.95999,-9.76 -3.57333,0 -6.56,2.08 -7.94666,5.01333 v -4.74666 h -3.94667 v 25.06665 h 4.37333 v -14.02666 c 0.16,-5.70666 4.16,-7.19999 6.56,-7.19999 3.2,0 5.54666,1.75999 5.54666,6.61332 z"
         id="path489" />
      <path
         d="m 888.10178,460.01745 c 0,6.18667 4.05333,12.42666 12.42666,12.42666 8.26666,0 12.37332,-6.23999 12.37332,-12.95999 0,-6.77333 -4.10666,-13.01333 -12.37332,-13.01333 -8.37333,0 -12.42666,6.77333 -12.42666,13.54666 z m 4.85333,-0.53333 c 0,-4.53333 2.02666,-9.49333 7.57333,-9.49333 5.54666,0 7.46666,4.96 7.46666,9.49333 0,4.48 -1.92,9.43999 -7.46666,9.43999 -5.54667,0 -7.57333,-4.95999 -7.57333,-9.43999 z"
         id="path491" />
      <path
         d="m 922.07515,446.84413 h -4.37333 v 15.83999 c 0,5.81333 2.77333,9.75999 8.96,9.75999 3.51999,0 6.50666,-2.08 7.94666,-5.01333 v 4.48 h 3.94666 v -25.06665 h -4.37333 v 13.86666 c 0,6.07999 -4.10666,7.62666 -6.55999,7.62666 -3.52,0 -5.54667,-1.76 -5.54667,-6.61333 z"
         id="path493" />
      <path
         d="m 945.38175,455.69746 c 0,2.77333 1.17333,5.38666 3.62666,7.03999 -2.93333,1.17333 -3.94666,3.04 -3.94666,4.8 0,2.72 1.86667,4.26666 4.53333,4.8 -1.97333,0.32 -5.65333,2.50666 -5.65333,5.43999 0,4.58667 4.21333,7.46666 11.67999,7.46666 5.22667,0 13.97333,-2.13333 13.97333,-9.17332 0,-5.06667 -5.22667,-7.14667 -10.88,-7.14667 -7.78666,0 -9.11999,-0.16 -9.11999,-2.34666 0,-0.85333 0.74667,-1.81333 2.56,-2.34667 1.17333,0.32 2.50666,0.48 4,0.48 7.25333,0 10.77332,-4.26666 10.77332,-9.01332 0,-3.09334 -1.49333,-5.97333 -4.47999,-7.62667 -0.74667,-0.69333 -0.96,-1.06666 -0.96,-2.29333 0,-1.01333 0.8,-2.4 2.34666,-2.45333 1.65333,-0.0533 2.88,0.37333 3.89333,1.65333 l 2.4,-2.24 c -1.12,-2.02666 -3.2,-2.93333 -6.02666,-2.93333 -3.14667,0 -6.18666,1.86667 -6.18666,5.12 0,0.69333 0,1.28 0.21333,1.81333 -0.64,-0.10667 -1.28,-0.16 -1.97333,-0.16 -7.2,0 -10.77333,4.26667 -10.77333,9.12 z m 3.25333,21.49332 c 0,-2.34667 2.61333,-3.73333 5.28,-4.37333 h 0.58666 c 0.53334,0 1.17334,-0.0533 2.34667,-0.0533 6.29333,-0.10666 8.21333,1.81333 8.21333,3.94667 0,2.98666 -4.58667,4.74666 -9.33333,4.74666 -3.52,0 -7.09333,-1.33333 -7.09333,-4.26666 z m 1.38667,-21.49332 c 0,-3.30667 2.29333,-5.86667 6.13333,-5.86667 3.89333,0 6.18666,2.56 6.18666,5.86667 0,3.19999 -2.29333,5.75999 -6.18666,5.75999 -3.84,0 -6.13333,-2.56 -6.13333,-5.75999 z"
         id="path495" />
      <path
         d="m 989.43503,471.91078 h 4.37333 v -15.57332 c 0,-5.81333 -2.77333,-9.76 -8.96,-9.76 -3.25333,0 -6.02666,1.76 -7.51999,4.26667 V 431.9108 h -4.37333 v 39.99998 h 4.37333 v -14.02666 c 0.16,-5.70666 4.16,-7.19999 6.55999,-7.19999 3.2,0 5.54667,1.75999 5.54667,6.61332 z"
         id="path497" />
    </g>
  </g>
  <g
     inkscape:groupmode="layer"
     id="layer3"
     inkscape:label="Layer 4">
    <g
       aria-label="Variist"
       transform="matrix(0.36135924,0,0,0.36135924,-14.065719,-16.66977)"
       id="text178"
       style="font-size:266.667px;font-family:'Cotham Sans';-inkscape-font-specification:'Cotham Sans';white-space:pre;shape-inside:url(#rect180);display:inline;fill:#80c080">
      <path
         d="m 204.33942,335.4762 h 14.66669 l 73.33342,-197.33358 h -25.0667 L 211.53943,294.14281 156.0727,138.14262 H 131.006 Z"
         id="path430" />
      <path
         d="m 388.07317,264.80944 -25.8667,0.53334 c -8.80001,0.26666 -18.13335,0.8 -25.33336,2.93333 -18.66669,5.33334 -29.60004,17.33336 -29.60004,36.26672 0,20.53335 16.00002,33.60004 38.93338,33.60004 17.06669,0 31.46671,-8.80001 42.13339,-21.0667 l 2.4,0.8 c 0.8,9.06668 8.26668,20.2667 22.40003,20.2667 3.73333,0 9.60001,-1.33334 11.20001,-1.86667 v -15.73336 c -11.73335,1.33334 -13.86668,-4.8 -13.86668,-15.20001 v -49.60006 c 0,-38.93339 -25.33337,-46.9334 -49.60006,-46.9334 -25.0667,0 -50.1334,12.80002 -50.1334,34.40005 0,2.13333 0,3.46667 0.53334,5.86667 l 22.66669,1.6 c -2.66667,-7.46667 -2.66667,-24.53336 27.20003,-24.53336 22.6667,0 26.93337,16.26669 26.93337,30.13337 z m -56.80007,38.13338 c 0,-16.53335 16.26669,-21.33336 32.26671,-22.13336 l 24.53336,-0.8 v 16.00002 c -9.06668,15.73335 -25.0667,24.2667 -37.33338,24.2667 -11.46668,0 -19.46669,-5.60001 -19.46669,-17.33336 z"
         id="path432" />
      <path
         d="m 449.40664,335.4762 h 21.86669 v -60.26674 c 0.53334,-16.53336 4.26668,-29.33337 8.53335,-35.46671 3.73334,-6.66668 9.86668,-12.26669 17.33335,-12.26669 5.60001,0 14.13335,0.53334 17.60002,13.06669 0.8,2.93333 0.8,9.60001 0.26667,14.40001 l 22.93336,-3.73333 c 0.26667,-3.20001 0.53334,-6.40001 0.53334,-9.06668 0,-22.93336 -14.93336,-33.33338 -36.53338,-33.33338 -13.33335,0 -26.13337,9.86668 -32.80004,25.0667 v -23.73336 h -19.73336 z"
         id="path434" />
      <path
         d="m 559.80667,335.4762 h 21.86669 V 210.14271 h -21.86669 z m -3.73334,-174.66688 c 0,8.80001 5.6,14.13335 14.93335,14.13335 9.33334,0 14.66668,-5.33334 14.66668,-14.13335 0,-8.80001 -5.33334,-14.13335 -14.66668,-14.13335 -9.33335,0 -14.93335,5.33334 -14.93335,14.13335 z"
         id="path436" />
      <path
         d="m 622.47357,335.4762 h 21.86669 V 210.14271 h -21.86669 z m -3.73334,-174.66688 c 0,8.80001 5.6,14.13335 14.93335,14.13335 9.33334,0 14.66668,-5.33334 14.66668,-14.13335 0,-8.80001 -5.33334,-14.13335 -14.66668,-14.13335 -9.33335,0 -14.93335,5.33334 -14.93335,14.13335 z"
         id="path438" />
      <path
         d="m 768.0739,241.07608 c 1.06667,-22.66669 -25.33336,-32.26671 -45.06672,-32.26671 -33.33337,0 -46.40006,20.2667 -46.40006,36.80005 0,7.46668 2.13334,15.73335 8.80001,22.13336 6.66668,6.13334 17.60002,10.66668 32.53338,14.13335 18.93335,4.53334 31.4667,8.53334 31.4667,21.06669 0,10.40002 -9.33334,17.60002 -26.40003,17.60002 -17.60002,0 -27.73337,-7.73334 -30.40004,-24.53336 l -19.20002,4.80001 c -1.06667,25.06669 23.46669,37.06671 46.40006,37.06671 35.73337,0 51.46672,-18.40002 51.46672,-38.93338 0,-21.60003 -15.20001,-31.20004 -42.66671,-37.06671 -25.33337,-5.60001 -30.93338,-10.13335 -30.93338,-19.73336 0,-9.06668 9.06668,-16.00002 22.93337,-16.00002 12.26668,0 26.93336,4.53334 27.73336,19.20002 z"
         id="path440" />
      <path
         d="m 861.67403,227.74273 v -16.80002 h -32.00004 v -52.80006 l -21.86669,8.00001 v 44.80005 h -20.26669 v 16.80002 h 20.26669 v 68.00008 c 0,25.33337 -0.8,41.33339 23.73336,41.33339 8.80001,0 19.20002,-1.6 26.6667,-4.00001 l -0.26667,-17.60002 c -5.86667,1.86667 -13.06668,2.66667 -17.60002,2.66667 -7.20001,0 -10.66668,-2.4 -10.66668,-20.80002 v -69.60009 z"
         id="path442" />
    </g>
  </g>
</svg>
