<?xml version="1.0" encoding="UTF-8" standalone="no"?>
<!-- Created with Inkscape (http://www.inkscape.org/) -->

<svg
   width="1280"
   height="640"
   viewBox="0 0 338.66666 169.33333"
   version="1.1"
   id="svg5"
   sodipodi:docname="logo-social.svg"
   inkscape:export-filename="/home/tegonal/projects/ght/minimalist-gh-pages/logo-social.png"
   inkscape:export-xdpi="96"
   inkscape:export-ydpi="96"
   inkscape:version="1.1.2 (0a00cf5339, 2022-02-04)"
   xmlns:inkscape="http://www.inkscape.org/namespaces/inkscape"
   xmlns:sodipodi="http://sodipodi.sourceforge.net/DTD/sodipodi-0.dtd"
   xmlns="http://www.w3.org/2000/svg"
   xmlns:svg="http://www.w3.org/2000/svg">
  <sodipodi:namedview
     id="namedview7"
     pagecolor="#ffffff"
     bordercolor="#666666"
     borderopacity="1.0"
     inkscape:pageshadow="2"
     inkscape:pageopacity="0.0"
     inkscape:pagecheckerboard="0"
     inkscape:document-units="px"
     showgrid="false"
     units="px"
     width="128px"
     inkscape:zoom="0.51451751"
     inkscape:cx="34.984232"
     inkscape:cy="887.23899"
     inkscape:window-width="2558"
     inkscape:window-height="1398"
     inkscape:window-x="2560"
     inkscape:window-y="20"
     inkscape:window-maximized="1"
     inkscape:current-layer="layer3"
     inkscape:snap-global="true"
     inkscape:snap-grids="true"
     showguides="true"
     inkscape:guide-bbox="true">
    <sodipodi:guide
       position="32.996874,72.354712"
       orientation="0,-1"
       id="guide3950" />
    <sodipodi:guide
       position="32.996874,150.01809"
       orientation="1,0"
       id="guide3952" />
    <sodipodi:guide
       position="297.77667,138.75086"
       orientation="1,0"
       id="guide3954" />
    <sodipodi:guide
       position="195.40747,143.46382"
       orientation="0,-1"
       id="guide4047" />
    <sodipodi:guide
       position="89.608226,26.854733"
       orientation="0,-1"
       id="guide4049" />
  </sodipodi:namedview>
  <defs
     id="defs2">
    <rect
       x="218.8225"
       y="425.24464"
       width="967.78873"
       height="145.11023"
       id="rect1443" />
  </defs>
  <g
     inkscape:groupmode="layer"
     id="layer2"
     inkscape:label="Layer 2"
     style="display:inline">
    <path
       style="opacity:1;fill:#80c080;fill-opacity:1;stroke-width:1.722;stroke-miterlimit:4;stroke-dasharray:none;paint-order:fill markers stroke"
       id="path5380"
       d="m 134.52569,105.4225 c -0.42852,-1.52692 -0.70917,-3.09717 -1.08992,-4.63788 -0.28349,-1.136335 -0.55692,-2.258294 -0.69326,-3.427877 -0.23036,-1.491632 -0.38238,-2.995695 -0.46527,-4.505013 0.009,-1.121593 -0.094,-2.225446 -0.21328,-3.337314 -0.13548,-1.418781 -0.19572,-2.843964 -0.21441,-4.269637 -0.0151,-1.039685 0.0375,-2.080884 -0.0685,-3.115488 -0.11233,-0.895141 -0.18622,-1.794005 -0.22793,-2.695966 -0.0814,-1.751874 0.30543,-3.485266 0.57606,-5.202803 0.33182,-1.638607 0.63578,-3.282448 0.98132,-4.917365 0.24479,-1.113798 0.49179,-2.227061 0.73823,-3.342176 0.31379,-1.322715 0.61894,-2.652721 0.94229,-3.975548 0.32881,-1.51013 0.73602,-2.995554 1.09903,-4.495298 0.24225,-1.164473 0.20592,-2.357261 0.1829,-3.541415 0.006,-1.886225 0.006,-3.764295 -0.13296,-5.644747 -0.0161,-1.677393 -0.42535,-3.272203 -0.82936,-4.875123 -0.32425,-1.505829 -0.87807,-2.935762 -1.36513,-4.384807 -0.33361,-0.908234 -0.80112,-1.715081 -1.39776,-2.443528 -0.86659,-1.105725 -2.01361,-1.780694 -3.20873,-2.378432 -2.66407,-1.144142 -5.44366,-1.911806 -8.25461,-2.483873 -3.41244,-0.621777 -6.86394,-0.949804 -10.30917,-1.275316 -2.42448,-0.250146 -4.86039,-0.280905 -7.28996,-0.439828 -2.66796,-0.178698 -5.339872,-0.237309 -8.009533,-0.377299 -2.685694,-0.184173 -5.376035,-0.300401 -8.066863,-0.337046 -2.994059,0.04007 -5.971535,-0.153146 -8.945971,-0.509393 -2.953505,-0.45259 -5.913848,-0.829046 -8.889005,-1.063951 -1.789549,-0.09215 -3.58414,-0.236956 -5.376627,-0.176338 -4.267553,0.519828 -9.076545,5.24235 -11.467093,6.831189 -0.222794,0.148071 -0.877795,1.236046 -1.022632,1.516178 -0.46164,1.011431 -0.585253,2.129446 -0.833147,3.211317 -0.173474,0.757084 -0.36864,1.508138 -0.550461,2.262916 -0.679846,3.123442 -1.433865,6.226922 -2.153851,9.339642 -0.717741,3.578707 -1.329037,7.180692 -1.804977,10.8062 -0.659712,5.110341 -0.60231,10.290918 -0.723157,15.439663 -0.09311,4.03916 -0.200621,8.076133 -0.144799,12.116464 0.05007,3.938481 0.01224,7.877354 -0.0071,11.815992 -0.0019,0.57617 -0.01876,1.15257 -0.0057,1.72859 0.03152,1.38612 0.124526,2.7699 0.165797,4.15572 0.05388,1.80961 0.07434,3.61078 0.177932,5.41814 0.03763,2.61163 0.456137,5.15751 1.170782,7.64255 0.262661,0.90453 0.763227,1.6889 1.161129,2.52531 0,0 10.015289,-6.24526 10.015289,-6.24526 v 0 c -0.408212,-0.7406 -0.854876,-1.46472 -1.133123,-2.2784 -0.777894,-2.33444 -1.129136,-4.76476 -1.220845,-7.24533 -0.198954,-3.73997 -0.383336,-7.481254 -0.323376,-11.229369 -0.02305,-3.932692 -0.06751,-7.865473 -0.02642,-11.798128 0.04756,-3.996814 -0.06133,-7.991304 -0.03982,-11.988339 0.05571,-5.139217 0.207973,-10.290333 0.946305,-15.376784 0.568434,-3.595545 1.18762,-7.18402 1.922347,-10.744438 0.73449,-3.137064 1.529051,-6.258099 2.292036,-9.387197 0.452519,-1.745413 0.734382,-3.645422 1.714842,-5.15169 0.13624,-0.158656 0.552514,-0.650541 0.693568,-0.784334 0.139728,-0.132533 0.605642,-0.463509 0.443828,-0.364823 -3.142192,1.916377 -6.246875,3.904423 -9.389228,5.820493 -0.155794,0.09499 0.271111,-0.255899 0.424994,-0.354496 0.14626,-0.09371 0.312251,-0.14529 0.468377,-0.217937 1.774519,-0.401061 3.614922,-0.105021 5.412013,-0.122164 3.000741,0.149967 5.990869,0.441771 8.962029,0.932176 2.962128,0.351094 5.923866,0.801459 8.912216,0.678808 2.693955,0.04648 5.388492,0.08233 8.078494,0.265558 2.643632,0.180236 5.289205,0.263535 7.933781,0.423509 2.452655,0.17991 4.906502,0.229472 7.361749,0.36315 3.43857,0.256812 6.8843,0.541886 10.29077,1.122167 2.68712,0.574309 5.35282,1.268436 7.89691,2.39165 1.05073,0.518244 2.0994,1.076864 2.86819,2.040928 0.53267,0.564837 0.85024,1.31369 1.1954,2.021426 0.53767,1.38124 1.06193,2.76339 1.36696,4.232951 0.39327,1.534546 0.65536,3.076242 0.73125,4.670382 0.14798,1.842236 0.11791,3.690885 0.0767,5.538233 -0.0525,1.112796 -0.0996,2.234655 -0.37126,3.315843 -0.33533,1.471692 -0.62163,2.956177 -1.00328,4.415077 -0.36301,1.347729 -0.75429,2.688906 -1.02248,4.063761 -0.25275,1.115495 -0.50304,2.232373 -0.70824,3.359275 -0.31075,1.633027 -0.55348,3.280248 -0.86369,4.913612 -0.29862,1.825626 -0.6485,3.665469 -0.60325,5.528964 0.0438,0.911007 0.17317,1.809587 0.25923,2.716423 0.0369,1.017765 -0.003,2.037786 0.0612,3.055044 0.0665,1.439633 0.15371,2.877405 0.28674,4.311868 0.069,1.120376 0.0469,2.243262 0.15715,3.360397 0.15317,1.506144 0.39058,3.000104 0.54111,4.506614 0.1244,1.23826 0.38277,2.43607 0.74104,3.62036 0.40403,1.50353 0.78423,3.02038 0.99866,4.57124 0,0 10.21721,-5.90764 10.21721,-5.90764 z"
       inkscape:export-filename="/home/tegonal/projects/ght/minimalist-gh-pages/logo.png"
       inkscape:export-xdpi="192"
       inkscape:export-ydpi="192" />
  </g>
  <g
     inkscape:groupmode="layer"
     id="layer1"
     inkscape:label="Layer 3">
    <path
       style="opacity:1;fill:#80c080;fill-opacity:1;stroke-width:0.279572"
       id="path219"
       d="m 143.57756,75.124685 c 0.36357,3.550909 0.51128,7.119161 0.62898,10.684839 0.0975,3.493202 0.12774,6.988003 0.10598,10.482369 -0.0177,1.487555 -0.0373,2.975101 -0.0427,4.462757 -0.0267,1.10356 -0.002,2.20429 0.065,3.30572 0.05,0.80356 0.0938,1.60753 0.1148,2.41235 0.0347,1.42939 -0.35635,1.47348 2.83291,-1.26402 0.17774,-0.15256 0.0216,-0.46278 0.0396,-0.69369 0.0302,-0.38735 0.07,-0.77391 0.10501,-1.16086 0.059,-0.59095 0.11184,-1.18252 0.17702,-1.77284 0.0748,-0.67745 0.16863,-1.35279 0.24282,-2.030305 0.33037,-3.017033 0.5723,-6.039307 0.74669,-9.068432 0.11583,-3.128134 0.39537,-6.247923 0.90869,-9.337906 0.1108,-0.666956 0.21698,-1.335326 0.36246,-1.995851 0.12566,-0.570546 0.30023,-1.129678 0.45033,-1.694519 0.50007,-1.263743 0.50495,-1.609499 1.41728,-2.63648 0.31944,-0.359577 1.24406,-0.519883 1.07521,-0.967051 -0.15964,-0.422781 -1.60948,0.586467 -1.16945,0.717446 0.55274,0.164533 1.06644,-0.450413 1.62859,-0.58078 0.64406,-0.149364 1.31243,-0.168965 1.96863,-0.253448 0.74333,0.04488 1.49794,5.54e-4 2.23002,0.134617 0.86081,0.157757 1.69914,0.430625 2.51781,0.735486 2.69023,1.001811 5.07097,2.651142 6.90912,4.830854 0.69534,0.824546 1.23932,1.761274 1.85898,2.641907 0.49054,0.90712 1.04093,1.78549 1.47164,2.721354 1.53895,3.343979 2.42449,7.097437 2.92191,10.723584 0.0957,0.697668 0.15446,1.399732 0.23169,2.099595 0.21969,2.423899 0.2315,4.858999 0.14557,7.289019 -0.017,0.17131 -0.034,0.34263 -0.0508,0.51394 0,0 2.80276,-1.37621 2.80276,-1.37621 v 0 c 0.007,-0.1724 0.0146,-0.34481 0.0219,-0.51721 9.2e-4,-2.41415 -0.0813,-4.829028 -0.34876,-7.230654 -0.0892,-0.699063 -0.15901,-1.400775 -0.2677,-2.097186 -0.40883,-2.619816 -1.04225,-5.221244 -1.9069,-7.733053 -0.35034,-1.017736 -0.70306,-2.038411 -1.15527,-3.016785 -0.43622,-0.943766 -1.00261,-1.824331 -1.50391,-2.736496 -0.61869,-0.900134 -1.16021,-1.85616 -1.85607,-2.700401 -1.21194,-1.470363 -2.84867,-2.867914 -4.50541,-3.842531 -0.76814,-0.451884 -1.59553,-0.804394 -2.42621,-1.133185 -0.81748,-0.323558 -1.64779,-0.635161 -2.50893,-0.820175 -0.73012,-0.156866 -1.48878,-0.132437 -2.23318,-0.198657 -0.65967,0.06043 -1.32924,0.05441 -1.97901,0.181273 -0.56582,0.110478 -1.13075,0.270762 -1.64538,0.526403 -2.29968,1.142356 -4.62453,2.178277 -5.78107,4.521127 -0.22891,0.463719 -0.35215,0.97078 -0.52821,1.456171 -0.13509,0.565804 -0.29287,1.126857 -0.40526,1.697412 -0.12938,0.656802 -0.21898,1.320579 -0.31957,1.982212 -0.47181,3.103805 -0.79315,6.228941 -0.90971,9.366036 -0.25222,4.32475 -0.62502,8.641599 -1.30938,12.924039 -0.054,0.3997 -0.11269,0.79882 -0.16193,1.19911 -0.0302,0.24542 -0.32669,0.76739 -0.0763,0.73784 2.99133,-0.3532 2.86625,-0.24096 2.80334,-1.56393 -0.0439,-0.79859 -0.11186,-1.59563 -0.16323,-2.39377 -0.0606,-1.09714 -0.054,-2.19381 -0.0521,-3.292281 -0.002,-1.47298 -0.0172,-2.945919 -0.0503,-4.418564 -0.0611,-3.475901 -0.11055,-6.952211 -0.23481,-10.42669 -0.12492,-3.605491 -0.28038,-7.21001 -0.39175,-10.81584 0,0 -2.80138,1.42234 -2.80138,1.42234 z" />
    <path
       style="opacity:1;fill:#80c080;fill-opacity:1;stroke-width:0.279572"
       id="path221"
       d="m 183.55768,76.773429 c 0.74724,1.725869 0.88275,3.671759 1.07362,5.514941 0.18033,1.741535 0.32648,3.717395 0.46485,5.460139 0.30777,4.400665 0.50409,8.808508 0.65732,13.216751 0.0362,1.46592 0.0327,2.92957 0.15828,4.39119 0.0446,0.38903 0.13164,0.7733 0.17438,1.1625 0.008,0.0745 -0.0567,0.259 0.011,0.22449 2.96522,-1.50876 2.98841,-0.644 2.635,-2.15871 -0.0708,-0.36525 -0.15304,-0.72853 -0.2122,-1.09575 -0.20958,-1.30077 -0.29429,-2.29473 -0.45767,-3.6269 -0.36387,-2.967054 -0.78348,-5.927458 -1.18224,-8.890121 -0.36338,-3.215523 -0.90386,-6.416601 -1.15777,-9.644119 -0.12776,-1.624156 -0.0985,-1.935241 -0.0983,-3.511615 0.11194,-1.493715 0.22573,-3.013641 0.82839,-4.407643 0.0833,-0.192516 0.16425,-0.388091 0.27793,-0.565012 0.0964,-0.149989 0.23167,-0.272237 0.3475,-0.408359 1.51384,-0.909868 -1.16993,0.580444 -1.65978,0.997813 -0.21451,0.182767 0.5503,-0.142446 0.83047,-0.189205 0.65987,-0.110127 1.33349,-0.149472 2.00084,-0.07127 0.42821,0.05017 0.84633,0.163012 1.26949,0.244519 1.40784,0.356637 2.75533,0.895437 4.09365,1.444101 0.37581,0.154067 0.74282,0.329279 1.12378,0.470667 1.17535,0.436206 1.46662,0.467043 2.7107,0.769708 2.26002,0.518612 4.57628,0.711928 6.88911,0.819626 1.26769,0.158054 3.45609,0.368835 4.44775,1.211421 0.37749,0.320746 0.65789,0.737111 0.98684,1.105667 2.44989,3.264386 3.28448,7.229291 3.98303,11.138837 0.48904,3.159791 0.6868,6.350362 0.78348,9.541597 0.0705,1.664648 0.0219,3.330608 -0.0942,4.991708 0,0 2.73717,-1.34945 2.73717,-1.34945 v 0 c 0.0627,-1.66417 0.0863,-3.33018 0.0435,-4.995254 -0.12104,-3.191325 -0.39905,-6.375652 -0.89417,-9.533602 -0.54719,-2.78372 -1.06313,-5.631653 -2.22636,-8.24686 -0.57307,-1.288404 -1.01342,-1.878087 -1.76881,-3.054342 -0.32705,-0.410395 -0.59832,-0.870121 -0.98116,-1.231184 -0.98263,-0.926737 -3.21172,-1.145432 -4.51299,-1.347634 -2.32236,-0.06794 -4.64883,-0.22361 -6.92258,-0.722195 -1.28064,-0.30824 -1.44955,-0.308966 -2.6573,-0.749554 -1.75524,-0.640304 -3.44442,-1.464081 -5.25705,-1.953789 -0.42442,-0.100416 -0.84249,-0.231558 -1.27327,-0.301257 -0.79985,-0.129409 -1.23716,-0.09007 -2.01679,-0.0057 -0.28346,0.03072 -0.58885,-0.002 -0.84729,0.116188 -2.73486,1.250686 -2.43126,1.038148 -3.66245,2.116308 -0.10298,0.154585 -0.22209,0.299916 -0.30892,0.463752 -0.81065,1.529852 -0.7754,3.358261 -0.9149,5.024462 0.0298,1.463918 0.0163,2.017085 0.15591,3.514393 0.29899,3.206466 0.92992,6.377228 1.30814,9.57412 0.40098,2.954698 0.46898,3.291225 0.78283,6.268993 0.26437,2.508155 0.41526,5.027855 0.74508,7.529195 0.23341,1.5491 -0.0558,0.90672 2.9416,-0.72466 0.0191,-0.0104 -0.11124,-0.69172 -0.15392,-0.98117 -0.0191,-0.12968 -0.0379,-0.25942 -0.0567,-0.38913 -0.13412,-1.43588 -0.21929,-2.8731 -0.28204,-4.314195 -0.26031,-4.379812 -0.58459,-8.755998 -0.83466,-13.136466 -0.13955,-1.830703 -0.26999,-3.662085 -0.41571,-5.492326 -0.15416,-1.936044 -0.19804,-3.95163 -0.87415,-5.799166 0,0 -2.73815,1.583459 -2.73815,1.583459 z" />
    <path
       style="opacity:1;fill:#80c080;fill-opacity:1;stroke-width:0.279572"
       id="path223"
       d="m 223.6356,48.166225 c 0.0117,0.31448 0.0268,0.62885 0.0349,0.943437 0.0452,1.75654 0.11824,3.49737 0.29554,5.248212 0.18747,1.851283 0.4698,3.891953 0.71075,5.730113 0.76291,5.381871 1.36613,10.78272 1.80158,16.199142 0.31399,4.592603 0.41886,9.196902 0.51412,13.798098 0.0721,2.952443 0.0521,5.905602 0.0564,8.85849 -0.0221,1.511903 0.0591,3.022683 0.11875,4.532973 0.0491,0.47937 0.12762,0.95501 0.18266,1.43371 0,0 2.81395,-1.44986 2.81395,-1.44986 v 0 c -0.0675,-0.46626 -0.1486,-0.93065 -0.2029,-1.39867 -0.11182,-1.48968 -0.20764,-2.982001 -0.19596,-4.476535 -0.0219,-2.934414 -0.1088,-5.86811 -0.18395,-8.801553 -0.1477,-4.598943 -0.24649,-9.201483 -0.5599,-13.793156 -0.48406,-5.404531 -1.13971,-10.789201 -1.89355,-16.163926 -0.47033,-4.002314 -0.92086,-8.026306 -0.68708,-12.061715 0,0 -2.80523,1.40124 -2.80523,1.40124 z" />
    <path
       style="opacity:1;fill:#80c080;fill-opacity:1;stroke-width:0.279572"
       id="path225"
       d="m 254.3041,72.474157 c -1.74366,-0.196207 -3.49237,-0.329679 -5.24435,-0.427599 -1.42963,-0.02333 -2.88855,-0.112376 -4.29325,0.215119 -0.28141,0.06561 -0.57239,0.120218 -0.82928,0.250533 -1.1476,0.582115 -2.24615,1.252771 -3.36922,1.879158 -0.184,0.195894 -0.39516,0.370272 -0.552,0.587684 -1.01559,1.407706 -0.97887,3.658785 -0.96556,5.300673 0.088,1.52531 0.3179,3.137969 1.16804,4.457723 0.11245,0.17459 0.24997,0.332399 0.37496,0.498599 1.09203,1.271809 2.72078,1.859916 4.22692,2.519493 3.3013,1.415544 6.56522,2.913638 9.78467,4.499809 1.33992,0.742472 2.86896,1.405777 3.83352,2.642273 0.63499,0.814009 0.63312,1.09895 0.96381,2.080996 0.28839,1.64094 0.0807,3.310892 -0.90237,4.711062 -0.54612,0.77782 -0.94286,0.99511 -1.68525,1.5673 0.50811,-0.30305 1.19309,-0.42488 1.52431,-0.90914 0.24271,-0.35484 -0.80448,0.33146 -1.21913,0.46295 -1.65361,0.5244 -3.38357,0.67205 -5.10509,0.79546 -2.40259,0.10009 -4.80618,-0.0334 -7.19501,-0.2816 -0.98148,-0.10853 -0.5244,-0.0468 -1.37233,-0.17695 0,0 -2.55338,1.7627 -2.55338,1.7627 v 0 c 0.88382,0.12286 0.41075,0.0663 1.4202,0.16191 2.41526,0.22011 4.8402,0.36908 7.26724,0.29168 1.73906,-0.10473 3.47408,-0.24925 5.15642,-0.72816 2.08594,-0.5938 2.42796,-1.0929 4.89948,-2.4943 0.7515,-0.63798 1.09352,-0.83237 1.6297,-1.67771 0.94505,-1.489962 1.10429,-3.223738 0.78858,-4.916172 -0.33628,-1.01118 -0.35554,-1.367854 -1.00492,-2.213432 -0.98395,-1.281244 -2.56609,-1.944503 -3.95385,-2.68764 -3.23655,-1.54687 -6.50963,-3.017756 -9.76866,-4.518269 -1.42015,-0.678703 -2.96843,-1.283304 -4.05026,-2.455938 -0.12113,-0.152111 -0.25424,-0.29575 -0.3634,-0.456331 -0.85387,-1.256009 -1.07467,-2.81402 -1.16624,-4.284978 0.003,-1.605821 0.005,-3.805778 1.12832,-5.112939 0.1678,-0.195209 0.38532,-0.34349 0.57798,-0.515234 -0.65137,0.355271 -1.34214,0.648608 -1.9541,1.065814 -0.23802,0.162269 0.53864,-0.213347 0.81752,-0.290953 1.38452,-0.38526 2.84754,-0.309241 4.26899,-0.29121 1.71582,0.09746 3.43264,0.21961 5.13053,0.490849 0,0 2.58646,-1.80323 2.58646,-1.80323 z" />
    <path
       id="path227"
       style="opacity:1;fill:#80c080;fill-opacity:1;stroke-width:0.269583"
       d="m 274.17299,39.613897 -2.93262,1.064721 c 0.0335,5.097879 0.7487,10.174982 1.35357,15.236546 0.2826,2.364687 0.56597,4.729131 0.84886,7.093789 0.35284,2.966958 0.71021,5.933645 1.06726,8.900206 -1.77597,-0.173807 -3.55321,-0.33642 -5.33504,-0.42979 l -2.70541,1.49688 c 2.75136,-0.0018 5.49112,0.304284 8.22382,0.57201 0.005,5.87e-4 0.009,0.001 0.0137,0.0017 0.94471,7.851634 1.88452,15.703829 2.74586,23.563248 0.20536,2.108829 0.45402,4.218023 0.52134,6.335053 l 2.85697,-1.0902 c -0.32615,-2.06269 -0.55967,-4.136997 -0.90693,-6.197262 -1.16025,-7.455009 -2.25869,-14.918641 -3.21397,-22.397227 1.93551,0.163963 3.87797,0.207644 5.82295,0.14787 1.2835,-0.05409 0.67057,-0.02009 1.83816,-0.09854 l 2.6223,-1.480021 c -1.18543,0.105882 -0.56421,0.06155 -1.8639,0.127807 -2.63776,0.114428 -5.27502,0.02722 -7.8977,-0.28383 -0.24375,-0.02338 -0.4876,-0.04797 -0.73137,-0.07189 -0.40848,-3.27466 -0.79065,-6.552255 -1.13322,-9.833411 -0.65233,-6.466005 -0.79986,-7.194069 -1.16035,-13.440683 -0.17681,-3.06321 -0.30079,-6.155615 -0.0342,-9.216882 z" />
    <text
       xml:space="preserve"
       transform="matrix(0.26458333,0,0,0.26458333,5.5464302,18.517944)"
       id="text1441"
       style="font-style:normal;font-variant:normal;font-weight:normal;font-stretch:normal;font-size:40px;line-height:1.25;font-family:sans-serif;-inkscape-font-specification:'sans-serif, Normal';font-variant-ligatures:normal;font-variant-caps:normal;font-variant-numeric:normal;font-variant-east-asian:normal;letter-spacing:0px;word-spacing:0px;white-space:pre;shape-inside:url(#rect1443);fill:#80c080;fill-opacity:1;stroke:none"><tspan
         x="218.82227"
         y="460.63477"
         id="tspan1088">create minimal test sets for junit-jupiter</tspan></text>
  </g>
  <g
     inkscape:groupmode="layer"
     id="layer3"
     inkscape:label="Layer 4" />
</svg>
