<?xml version="1.0" encoding="UTF-8" standalone="no"?>
<!-- Created with Inkscape (http://www.inkscape.org/) -->

<svg
   width="128"
   height="128"
   viewBox="0 0 33.866666 33.866666"
   version="1.1"
   id="svg5"
   sodipodi:docname="minimalist logo.svg"
   inkscape:export-filename="/home/tegonal/projects/ght/minimalist-gh-pages/logo.png"
   inkscape:export-xdpi="96"
   inkscape:export-ydpi="96"
   inkscape:version="1.1.2 (0a00cf5339, 2022-02-04)"
   xmlns:inkscape="http://www.inkscape.org/namespaces/inkscape"
   xmlns:sodipodi="http://sodipodi.sourceforge.net/DTD/sodipodi-0.dtd"
   xmlns="http://www.w3.org/2000/svg"
   xmlns:svg="http://www.w3.org/2000/svg">
  <sodipodi:namedview
     id="namedview7"
     pagecolor="#ffffff"
     bordercolor="#666666"
     borderopacity="1.0"
     inkscape:pageshadow="2"
     inkscape:pageopacity="0.0"
     inkscape:pagecheckerboard="0"
     inkscape:document-units="px"
     showgrid="false"
     units="px"
     width="128px"
     inkscape:zoom="4.2407829"
     inkscape:cx="98.802512"
     inkscape:cy="84.064667"
     inkscape:window-width="2558"
     inkscape:window-height="1398"
     inkscape:window-x="0"
     inkscape:window-y="20"
     inkscape:window-maximized="1"
     inkscape:current-layer="layer2"
     inkscape:snap-global="true"
     inkscape:snap-grids="true" />
  <defs
     id="defs2" />
  <g
     inkscape:groupmode="layer"
     id="layer2"
     inkscape:label="Layer 2"
     style="display:inline">
    <path
       style="opacity:1;fill:#80c080;fill-opacity:1;stroke-width:0.494462;stroke-miterlimit:4;stroke-dasharray:none;paint-order:fill markers stroke"
       id="path5380"
       d="m 30.0397,25.333025 c -0.128108,-0.421123 -0.212008,-0.854201 -0.325833,-1.279127 -0.08475,-0.313402 -0.166494,-0.622839 -0.20725,-0.94541 -0.06887,-0.411392 -0.114316,-0.826213 -0.139097,-1.242483 0.0028,-0.309336 -0.02811,-0.613779 -0.06376,-0.920432 -0.0405,-0.3913 -0.05851,-0.784366 -0.0641,-1.177567 -0.0045,-0.286745 0.01121,-0.573908 -0.02046,-0.859252 -0.03358,-0.24688 -0.05567,-0.494787 -0.06814,-0.743548 -0.02433,-0.483167 0.09131,-0.961237 0.172213,-1.434934 0.0992,-0.451928 0.19007,-0.9053 0.29337,-1.35621 0.07318,-0.307186 0.147021,-0.614224 0.220694,-0.921773 0.09381,-0.364805 0.185033,-0.731621 0.281699,-1.096457 0.0983,-0.416494 0.220034,-0.826174 0.328558,-1.239804 0.07242,-0.321162 0.06156,-0.650133 0.05468,-0.976723 0.0018,-0.520221 0.0019,-1.038193 -0.03975,-1.5568222 C 30.457714,9.1198575 30.335365,8.6800085 30.214586,8.237923 30.11765,7.8226148 29.952086,7.4282391 29.806476,7.0285923 29.706743,6.7781013 29.566981,6.5555728 29.388612,6.3546668 29.129545,6.0497077 28.786642,5.8635511 28.429358,5.6986949 27.632928,5.3831403 26.801966,5.1714182 25.961624,5.0136424 24.941471,4.842156 23.909637,4.7516861 22.87968,4.6619098 22.154877,4.5929195 21.42666,4.5844363 20.700332,4.5406049 19.902741,4.49132 19.103968,4.4751553 18.305868,4.4365461 17.502975,4.3857509 16.698692,4.3536953 15.894264,4.3435887 14.999184,4.3546391 14.109062,4.3013511 13.219849,4.2030979 12.336893,4.0782735 11.451893,3.9744469 10.562464,3.9096602 10.027475,3.8842439 9.4909782,3.8443074 8.9551112,3.861026 7.6793182,4.0043946 6.2416607,5.3068668 5.5270018,5.7450695 5.4603969,5.7859072 5.2645833,6.0859711 5.2212843,6.1632313 5.0832758,6.4421843 5.0463214,6.7505333 4.972213,7.0489132 4.9203527,7.2577173 4.8620077,7.4648579 4.8076519,7.673026 4.6044104,8.5344718 4.3789952,9.3904123 4.1637536,10.248901 3.9491842,11.235909 3.7664359,12.229337 3.6241523,13.229253 3.4269307,14.638686 3.4440909,16.06749 3.4079635,17.487515 c -0.027836,1.114001 -0.059976,2.227399 -0.043288,3.341723 0.014969,1.086234 0.00366,2.172576 -0.00209,3.258854 -5.638e-4,0.158907 -0.00561,0.317877 -0.00169,0.476745 0.00942,0.382291 0.037227,0.76394 0.049565,1.146149 0.016109,0.49909 0.022226,0.995854 0.053193,1.494321 0.01125,0.72029 0.1363632,1.422446 0.3500078,2.107819 0.078523,0.24947 0.2281683,0.465799 0.3471215,0.696482 0,0 2.9940899,-1.722444 2.9940899,-1.722444 v 0 C 7.032837,28.082906 6.8993058,27.883193 6.8161234,27.658781 6.5835704,27.014942 6.4785659,26.344659 6.4511495,25.660516 6.3916716,24.62903 6.3365504,23.597185 6.3544757,22.563454 c -0.00689,-1.084637 -0.020184,-2.169299 -0.0079,-3.253926 0.014216,-1.102322 -0.018335,-2.204003 -0.011902,-3.306386 0.016654,-1.417397 0.062174,-2.838076 0.2828998,-4.24092 C 6.787508,10.77057 6.9726149,9.7808679 7.1922629,8.7989039 7.4118402,7.9337011 7.6493756,7.072919 7.8774714,6.2099131 8.012753,5.7285279 8.0970162,5.2045051 8.3901266,4.7890757 8.430856,4.7453188 8.5553016,4.6096564 8.59747,4.5727565 8.6392422,4.536204 8.7785282,4.4449208 8.7301535,4.4721385 7.7907893,5.0006755 6.862638,5.5489791 5.9232258,6.0774313 c -0.046575,0.026201 0.081049,-0.070577 0.1270527,-0.09777 0.043725,-0.025846 0.093348,-0.040071 0.1400224,-0.060107 0.5304958,-0.1106126 1.0806874,-0.028965 1.6179315,-0.033693 0.8970773,0.041361 1.7909817,0.1218405 2.6792156,0.2570942 0.885534,0.096832 1.770951,0.2210428 2.664324,0.1872156 0.805363,0.01282 1.6109,0.02271 2.415081,0.073241 0.790319,0.049709 1.581218,0.072683 2.371819,0.116804 0.733226,0.049619 1.466808,0.063288 2.200808,0.1001564 1.027969,0.070829 2.058076,0.1494525 3.076446,0.3094939 0.80332,0.1583948 1.600236,0.349835 2.360795,0.6596176 0.314121,0.1429322 0.627622,0.2969994 0.857453,0.5628885 0.159243,0.1557823 0.25418,0.3623159 0.357368,0.5575098 0.160738,0.3809461 0.317464,0.7621434 0.408656,1.1674488 0.117568,0.4232279 0.195921,0.8484279 0.218607,1.2880919 0.04424,0.508089 0.03525,1.017947 0.02291,1.527446 -0.0157,0.306909 -0.02979,0.616318 -0.11099,0.91451 -0.100245,0.405893 -0.185837,0.815314 -0.299931,1.217679 -0.108524,0.371704 -0.225498,0.741601 -0.305673,1.120786 -0.07556,0.307654 -0.150385,0.615689 -0.211731,0.926489 -0.0929,0.450389 -0.165466,0.904693 -0.258202,1.355175 -0.08927,0.503508 -0.193869,1.010937 -0.180342,1.524889 0.01308,0.251256 0.05177,0.499085 0.0775,0.74919 0.01103,0.2807 -9.38e-4,0.562022 0.01832,0.842582 0.01988,0.397051 0.04595,0.793589 0.08572,1.189214 0.0206,0.309 0.01402,0.618692 0.04698,0.926798 0.04579,0.415393 0.116765,0.827428 0.161766,1.242927 0.03719,0.341509 0.114429,0.671867 0.221537,0.998494 0.120783,0.414674 0.234447,0.833022 0.29855,1.260751 0,0 3.054454,-1.62933 3.054454,-1.62933 z"
       inkscape:export-filename="/home/tegonal/projects/ght/minimalist-gh-pages/logo.png"
       inkscape:export-xdpi="192"
       inkscape:export-ydpi="192" />
  </g>
</svg>
